# xmcd
#
# Track frame offsets:
# 150
# 14661
# 25501
# 35005
# 46472
# 59323
# 72192
# 99220
# 110689
# 123147
# 136942
# 149192
# 162464
# 173110
# 186438
#
# Disc length: 2671 seconds
#
#
# Revision: 0
# Processed by: cddbd v1.4PL0 Copyright (c) Steve Scherf et al.
# Submitted via: FreeRIP 2.40 
#
DISCID=d80a6d0f
DTITLE=Various Artist - GOOD MORNING COUNTRY Disc 1
DYEAR=2002
DGENRE=Country
TTITLE0=Sunshine
TTITLE1=Send Me The Pillow That You Dream On
TTITLE2=Kiss An Angel Good Morning
TTITLE3=Help Me Make It Through The Night
TTITLE4=It's Four In The Morning
TTITLE5=Morning
TTITLE6=To A Sleeping Beauty
TTITLE7=Walkin' After Midnight
TTITLE8=Crazy
TTITLE9=A Good Year For The Roses
TTITLE10=Satin Sheets
TTITLE11=Rose Garden
TTITLE12=Sally Was A Good Old Girl
TTITLE13=Where Do We Go From Here
TTITLE14=Home Is Where You're Happy
EXTD=
EXTT0=Kenny Rodgers
EXTT1=Hank Locklin
EXTT2=Charlie Pride
EXTT3=Sammi Smith
EXTT4=Faron Young
EXTT5=Jim Ed Brown
EXTT6=Jimmy Dean
EXTT7=Patsy Cline
EXTT8=Wanda Jackson
EXTT9=George Jones
EXTT10=Jeanne Pruett
EXTT11=Lynn Anderson
EXTT12=Waylon Jennings
EXTT13=Don Williams
EXTT14=Willie Nelson
PLAYORDER=
